<?xml version="1.0" encoding="UTF-8"?>
<svg width="100" height="100" fill="none" viewBox="0 0 46 41" xmlns="http://www.w3.org/2000/svg">
<path d="m37.338 16.457c-0.3149-8.9867-8.3073-16.239-18.204-16.457-0.2549 0-0.4648 0.17755-0.4648 0.40973l-0.015 6.0366c0 0.30047-0.2549 0.53264-0.5848 0.5463-9.8667 0.27315-17.829 7.5663-18.069 16.58 0 0.2321 0.19494 0.4233 0.44985 0.4233l6.6128 0.0137c0.32989 0 0.5848 0.2322 0.5998 0.5326 0.31489 8.9867 8.3222 16.239 18.204 16.457 0.2549 0 0.4648-0.1776 0.4648-0.4097l0.015-6.0367c0-0.3004 0.2549-0.5326 0.5848-0.5463 9.8667-0.2868 17.829-7.5799 18.069-16.58 0-0.2321-0.1949-0.4233-0.4499-0.4233l-6.6127-0.0137c-0.3299 0-0.5848-0.2322-0.5998-0.5326zm-11.651 17.509c-5.6081-0.3005-10.107-4.4524-10.316-9.5877-0.015-0.2185-0.21-0.396-0.4499-0.396l-6.5978-0.0137c-0.34489 0-0.6148-0.2595-0.5998-0.5736 0.32989-5.1079 4.8884-9.2052 10.526-9.3964 0.2399-0.0137 0.4349-0.1912 0.4349-0.4097l0.015-6.023c0-0.31413 0.2849-0.55996 0.6298-0.5463 5.6081 0.30046 10.107 4.4524 10.316 9.5876 0.015 0.2185 0.2099 0.3961 0.4499 0.3961l6.5978 0.0136c0.3449 0 0.6148 0.2595 0.5998 0.5736-0.3299 5.2445-5.1133 9.4101-10.946 9.4101l-0.015 6.4191c-0.015 0.3141-0.2999 0.5599-0.6448 0.5463z" fill="#FF6715"/>
<path d="m18.473 16.867c0-0.8264 0.9724-1.3502 1.7671-0.952l7.3398 3.678c0.8237 0.4128 0.8237 1.4912 0 1.904l-7.3398 3.6781c-0.7947 0.3982-1.7671-0.1257-1.7671-0.952v-7.3561z" fill="#fff" clipRule="evenodd" fillRule="evenodd"/>
</svg>